<svg width="24" height="24" viewBox="0 0 24 24" fill="none" xmlns="http://www.w3.org/2000/svg">
<g clip-path="url(#clip0_2453_20781)">
<path fill-rule="evenodd" clip-rule="evenodd" d="M19.4944 3.13302C19.716 2.99973 19.9806 2.95746 20.2327 3.01507C20.4848 3.07268 20.7047 3.22571 20.8464 3.44202L21.8364 4.95202C21.9655 5.14928 22.0207 5.38579 21.9923 5.61981C21.964 5.85382 21.8539 6.0703 21.6814 6.23102L21.6784 6.23502L21.6644 6.24802L21.6074 6.30102L21.3824 6.51602C20.1374 7.72362 18.9302 8.96955 17.7624 10.252C15.5654 12.668 12.9564 15.83 11.2004 18.898C10.7104 19.754 9.51342 19.938 8.80342 19.199L2.31842 12.461C2.22549 12.3644 2.15292 12.2501 2.10504 12.1249C2.05716 11.9997 2.03493 11.8662 2.03969 11.7322C2.04445 11.5983 2.07609 11.4666 2.13274 11.3451C2.18938 11.2236 2.26987 11.1148 2.36942 11.025L4.32942 9.25702C4.50167 9.10173 4.72253 9.01113 4.9542 9.00074C5.18588 8.99034 5.41396 9.06079 5.59942 9.20002L8.90843 11.681C14.0774 6.58402 17.0084 4.62802 19.4944 3.13302Z" fill="#76AA7B"/>
</g>
<defs>
<clipPath id="clip0_2453_20781">
<rect width="24" height="24" fill="white"/>
</clipPath>
</defs>
</svg>
