<svg width="18" height="20" viewBox="0 0 18 20" fill="none" xmlns="http://www.w3.org/2000/svg">
<path d="M16.2 18.5284H13.5C13.245 18.5284 13.0314 18.4394 12.8592 18.2615C12.687 18.0837 12.6006 17.8638 12.6 17.6019C12.6 17.3394 12.6864 17.1196 12.8592 16.9423C13.032 16.7651 13.2456 16.6761 13.5 16.6755H16.2V7.41134H3.6V10.1906C3.6 10.4531 3.5136 10.6733 3.3408 10.8511C3.168 11.029 2.9544 11.1176 2.7 11.117C2.445 11.117 2.2314 11.0281 2.0592 10.8502C1.887 10.6723 1.8006 10.4525 1.8 10.1906V3.70567C1.8 3.19614 1.9764 2.76011 2.3292 2.39757C2.682 2.03503 3.1056 1.85345 3.6 1.85284H4.5V0.926418C4.5 0.663933 4.5864 0.444063 4.7592 0.266808C4.932 0.0895538 5.1456 0.000617612 5.4 0C5.655 0 5.8689 0.0889362 6.0417 0.266808C6.2145 0.444681 6.3006 0.66455 6.3 0.926418V1.85284H13.5V0.926418C13.5 0.663933 13.5864 0.444063 13.7592 0.266808C13.932 0.0895538 14.1456 0.000617612 14.4 0C14.655 0 14.8689 0.0889362 15.0417 0.266808C15.2145 0.444681 15.3006 0.66455 15.3 0.926418V1.85284H16.2C16.695 1.85284 17.1189 2.03441 17.4717 2.39757C17.8245 2.76072 18.0006 3.19676 18 3.70567V16.6755C18 17.185 17.8239 17.6214 17.4717 17.9845C17.1195 18.3477 16.6956 18.529 16.2 18.5284ZM7.3575 16.6755H0.9C0.645 16.6755 0.4314 16.5866 0.2592 16.4087C0.087 16.2308 0.0006 16.011 0 15.7491C0 15.4866 0.0864 15.2667 0.2592 15.0895C0.432 14.9122 0.6456 14.8233 0.9 14.8227H7.3575L5.67 13.0625C5.505 12.8926 5.4189 12.6805 5.4117 12.426C5.4045 12.1716 5.4906 11.9514 5.67 11.7655C5.835 11.5957 6.045 11.5107 6.3 11.5107C6.555 11.5107 6.765 11.5957 6.93 11.7655L10.17 15.1006C10.35 15.2859 10.44 15.5021 10.44 15.7491C10.44 15.9961 10.35 16.2123 10.17 16.3976L6.93 19.7327C6.765 19.9025 6.5589 19.9915 6.3117 19.9995C6.0645 20.0075 5.8506 19.9186 5.67 19.7327C5.505 19.5629 5.4225 19.3467 5.4225 19.0842C5.4225 18.8217 5.505 18.6056 5.67 18.4357L7.3575 16.6755Z" fill="#E9AC12"/>
</svg>
