<svg width="20" height="20" viewBox="0 0 20 20" fill="none" xmlns="http://www.w3.org/2000/svg">
<path d="M18.8035 16.9465C19.0501 17.193 19.1886 17.5275 19.1886 17.8762C19.1886 18.2249 19.0501 18.5593 18.8035 18.8059C18.557 19.0524 18.2226 19.1909 17.8739 19.1909C17.5252 19.1909 17.1907 19.0524 16.9442 18.8059L9.99995 11.8594L3.05355 18.8037C2.80698 19.0502 2.47256 19.1888 2.12386 19.1888C1.77516 19.1888 1.44074 19.0502 1.19417 18.8037C0.947603 18.5571 0.809082 18.2227 0.809082 17.874C0.809082 17.5253 0.947603 17.1909 1.19417 16.9443L8.14058 10.0001L1.19636 3.05366C0.94979 2.80709 0.81127 2.47268 0.81127 2.12398C0.81127 1.77528 0.94979 1.44086 1.19636 1.19429C1.44293 0.94772 1.77735 0.809199 2.12605 0.809199C2.47475 0.809199 2.80917 0.94772 3.05573 1.19429L9.99995 8.14069L16.9464 1.19319C17.1929 0.946626 17.5273 0.808105 17.876 0.808105C18.2247 0.808105 18.5592 0.946626 18.8057 1.19319C19.0523 1.43976 19.1908 1.77418 19.1908 2.12288C19.1908 2.47158 19.0523 2.806 18.8057 3.05257L11.8593 10.0001L18.8035 16.9465Z" fill="white"/>
</svg>
