<svg width="39" height="39" viewBox="0 0 39 39" fill="none" xmlns="http://www.w3.org/2000/svg">
<path d="M19.5 3.25L19.6901 3.26137C20.0529 3.30415 20.3906 3.46788 20.6489 3.72614C20.9071 3.98441 21.0708 4.32215 21.1136 4.68487L21.125 4.875V11.375L21.1331 11.6188C21.1913 12.3925 21.5244 13.12 22.0721 13.6695C22.6199 14.2191 23.3463 14.5546 24.1199 14.6153L24.375 14.625H30.875L31.0651 14.6364C31.4279 14.6792 31.7656 14.8429 32.0239 15.1011C32.2821 15.3594 32.4458 15.6971 32.4886 16.0599L32.5 16.25V30.875C32.5001 32.1185 32.025 33.315 31.1719 34.2197C30.3189 35.1244 29.1523 35.6689 27.911 35.7419L27.625 35.75H11.375C10.1315 35.7501 8.93504 35.275 8.03033 34.4219C7.12561 33.5689 6.58108 32.4023 6.50813 31.161L6.5 30.875V8.125C6.49993 6.88153 6.97503 5.68504 7.82809 4.78033C8.68114 3.87561 9.84767 3.33108 11.089 3.25813L11.375 3.25H19.5Z" fill="white"/>
<path d="M30.8749 11.3752H24.3749L24.3733 4.87354L30.8749 11.3752Z" fill="white"/>
</svg>
