<svg width="194" height="40" viewBox="0 0 194 40" fill="none" xmlns="http://www.w3.org/2000/svg">
<path fill-rule="evenodd" clip-rule="evenodd" d="M193.883 10.7479L180.065 25.0415L193.883 39.3353C193.618 39.4659 193.319 39.5393 193.002 39.5393H151.313C150.208 39.5393 149.312 38.6439 149.312 37.5393V12.5438C149.312 11.4393 150.208 10.5438 151.312 10.5438H193.002C193.319 10.5438 193.618 10.6172 193.883 10.7479Z" fill="#BFBFBF"/>
<path fill-rule="evenodd" clip-rule="evenodd" d="M-0.000179291 39.3352L13.8179 25.0415L-0.000156403 10.7479C0.265675 10.6172 0.564743 10.5438 0.880951 10.5438L42.5708 10.5438C43.6754 10.5438 44.5708 11.4393 44.5708 12.5438V37.5393C44.5708 38.6439 43.6754 39.5393 42.5708 39.5393L0.880951 39.5393C0.564735 39.5393 0.265656 39.4659 -0.000179291 39.3352Z" fill="#BFBFBF"/>
<rect x="22.7866" width="147.613" height="28.9955" rx="4" fill="#D9D9D9"/>
</svg>
