<svg width="40" height="39" viewBox="0 0 40 39" fill="none" xmlns="http://www.w3.org/2000/svg">
<path d="M29.75 2.61277C32.7144 4.32425 35.176 6.78589 36.8875 9.75027C38.599 12.7146 39.5 16.0773 39.5 19.5003C39.5 22.9232 38.5989 26.2859 36.8874 29.2502C35.1759 32.2146 32.7142 34.6762 29.7498 36.3876C26.7854 38.0991 23.4227 39.0001 19.9997 39C16.5767 38.9999 13.214 38.0989 10.2497 36.3873C7.28532 34.6758 4.82372 32.2141 3.11229 29.2497C1.40086 26.2853 0.499913 22.9226 0.5 19.4996L0.50975 18.8678C0.618956 15.5002 1.59892 12.2183 3.3541 9.34216C5.10928 6.46599 7.57977 4.09369 10.5247 2.45654C13.4697 0.819394 16.7886 -0.0267358 20.158 0.000643974C23.5273 0.0280238 26.832 0.927979 29.75 2.61277ZM21.95 7.79973C21.4328 7.79973 20.9368 8.00518 20.5711 8.37087C20.2054 8.73656 20 9.23255 20 9.74972H18.05C18.05 9.23255 17.8446 8.73656 17.4789 8.37087C17.1132 8.00518 16.6172 7.79973 16.1 7.79973C15.5828 7.79973 15.0868 8.00518 14.7211 8.37087C14.3554 8.73656 14.15 9.23255 14.15 9.74972C13.6328 9.74972 13.1368 9.95516 12.7711 10.3209C12.4054 10.6866 12.2 11.1825 12.2 11.6997C12.2 12.2169 12.4054 12.7129 12.7711 13.0786C13.1368 13.4442 13.6328 13.6497 14.15 13.6497V25.3496C13.6328 25.3496 13.1368 25.555 12.7711 25.9207C12.4054 26.2864 12.2 26.7824 12.2 27.2996C12.2 27.8168 12.4054 28.3127 12.7711 28.6784C13.1368 29.0441 13.6328 29.2496 14.15 29.2496C14.15 31.8489 18.05 31.8489 18.05 29.2496H20C20 29.7667 20.2054 30.2627 20.5711 30.6284C20.9368 30.9941 21.4328 31.1996 21.95 31.1996C22.4672 31.1996 22.9632 30.9941 23.3289 30.6284C23.6946 30.2627 23.9 29.7667 23.9 29.2496V28.9571C26.1757 28.1888 27.8 25.9794 27.8 23.3996L27.7903 23.0584C27.7182 21.7457 27.2151 20.4934 26.3589 19.4957C27.256 18.4584 27.8 17.0914 27.8 15.5997C27.8 13.0198 26.1757 10.8105 23.9 10.0422V9.74972C23.9 9.23255 23.6946 8.73656 23.3289 8.37087C22.9632 8.00518 22.4672 7.79973 21.95 7.79973ZM22.1255 21.4496C23.0849 21.4496 23.9 22.3018 23.9 23.3996C23.9 24.4975 23.0849 25.3496 22.1255 25.3496H18.05V21.4496H22.1255ZM22.1255 13.6497C23.0849 13.6497 23.9 14.5018 23.9 15.5997C23.9 16.6176 23.198 17.4268 22.3283 17.536L22.1255 17.5497H18.05V13.6497H22.1255Z" fill="#FFD233"/>
</svg>
