<svg width="59" height="59" viewBox="0 0 59 59" fill="none" xmlns="http://www.w3.org/2000/svg">
<g filter="url(#filter0_d_771_9173)">
<path d="M29.4926 0C25.6407 0.00222554 21.8392 0.876575 18.3736 2.55744C14.9079 4.2383 11.8681 6.68201 9.48219 9.7052C7.09628 12.7284 5.42625 16.2525 4.59744 20.0132C3.76863 23.7738 3.80256 27.6733 4.69669 31.4189C5.59081 35.1646 7.3219 38.6591 9.76006 41.6404C12.1982 44.6216 15.2801 47.0121 18.7745 48.6324C22.2689 50.2527 26.0849 51.0608 29.9364 50.9961C33.7878 50.9313 37.5745 49.9954 41.0124 48.2585L41.3982 48.0513L53.02 50.9519C53.2437 51.0081 53.4769 51.0151 53.7035 50.9725C53.9302 50.9299 54.1449 50.8386 54.3328 50.705C54.5207 50.5713 54.6774 50.3985 54.7921 50.1985C54.9067 49.9984 54.9766 49.7759 54.9968 49.5462V49.2848L54.9522 49.0203L52.0507 37.4051L52.2516 37.0226C53.7107 34.1512 54.6088 31.028 54.898 27.8203L54.9777 26.6027L55 25.4998C55 18.7369 52.3126 12.2509 47.5291 7.46873C42.7455 2.68658 36.2576 0 29.4926 0ZM27.8984 28.6873H37.4637L37.7506 28.7128C38.1182 28.7794 38.4507 28.9728 38.6902 29.2594C38.9296 29.5461 39.0608 29.9076 39.0608 30.2811C39.0608 30.6545 38.9296 31.0161 38.6902 31.3027C38.4507 31.5893 38.1182 31.7828 37.7506 31.8493L37.4637 31.8748H27.8984L27.6115 31.8493C27.2439 31.7828 26.9114 31.5893 26.6719 31.3027C26.4325 31.0161 26.3013 30.6545 26.3013 30.2811C26.3013 29.9076 26.4325 29.5461 26.6719 29.2594C26.9114 28.9728 27.2439 28.7794 27.6115 28.7128L27.8984 28.6873ZM21.5216 19.1249H37.4637L37.7506 19.1504C38.1182 19.2169 38.4507 19.4104 38.6902 19.697C38.9296 19.9836 39.0608 20.3452 39.0608 20.7186C39.0608 21.0921 38.9296 21.4536 38.6902 21.7403C38.4507 22.0269 38.1182 22.2203 37.7506 22.2869L37.4637 22.3124H21.5216L21.2346 22.2869C20.867 22.2203 20.5345 22.0269 20.2951 21.7403C20.0556 21.4536 19.9244 21.0921 19.9244 20.7186C19.9244 20.3452 20.0556 19.9836 20.2951 19.697C20.5345 19.4104 20.867 19.2169 21.2346 19.1504L21.5216 19.1249Z" fill="#FFDB5E"/>
</g>
<defs>
<filter id="filter0_d_771_9173" x="0" y="0" width="59" height="59" filterUnits="userSpaceOnUse" color-interpolation-filters="sRGB">
<feFlood flood-opacity="0" result="BackgroundImageFix"/>
<feColorMatrix in="SourceAlpha" type="matrix" values="0 0 0 0 0 0 0 0 0 0 0 0 0 0 0 0 0 0 127 0" result="hardAlpha"/>
<feOffset dy="4"/>
<feGaussianBlur stdDeviation="2"/>
<feComposite in2="hardAlpha" operator="out"/>
<feColorMatrix type="matrix" values="0 0 0 0 0 0 0 0 0 0 0 0 0 0 0 0 0 0 0.25 0"/>
<feBlend mode="normal" in2="BackgroundImageFix" result="effect1_dropShadow_771_9173"/>
<feBlend mode="normal" in="SourceGraphic" in2="effect1_dropShadow_771_9173" result="shape"/>
</filter>
</defs>
</svg>
