<svg width="28" height="27" viewBox="0 0 28 27" fill="none" xmlns="http://www.w3.org/2000/svg">
<g clip-path="url(#clip0_150_4456)">
<path d="M25.0353 4.5H22.5978V6H24.8478V22.5H3.84785V6H6.09785V4.5H3.66035C3.48503 4.50293 3.312 4.54037 3.15115 4.61018C2.9903 4.67999 2.84478 4.78081 2.7229 4.90687C2.60101 5.03293 2.50516 5.18176 2.44081 5.34488C2.37646 5.50799 2.34487 5.68218 2.34785 5.8575V22.6425C2.34487 22.8178 2.37646 22.992 2.44081 23.1551C2.50516 23.3182 2.60101 23.4671 2.7229 23.5931C2.84478 23.7192 2.9903 23.82 3.15115 23.8898C3.312 23.9596 3.48503 23.9971 3.66035 24H25.0353C25.2107 23.9971 25.3837 23.9596 25.5445 23.8898C25.7054 23.82 25.8509 23.7192 25.9728 23.5931C26.0947 23.4671 26.1905 23.3182 26.2549 23.1551C26.3192 22.992 26.3508 22.8178 26.3478 22.6425V5.8575C26.3508 5.68218 26.3192 5.50799 26.2549 5.34488C26.1905 5.18176 26.0947 5.03293 25.9728 4.90687C25.8509 4.78081 25.7054 4.67999 25.5445 4.61018C25.3837 4.54037 25.2107 4.50293 25.0353 4.5Z" fill="#E5E0E0"/>
<path d="M6.84766 10.5H8.34766V12H6.84766V10.5Z" fill="#E5E0E0"/>
<path d="M11.3477 10.5H12.8477V12H11.3477V10.5Z" fill="#E5E0E0"/>
<path d="M15.8477 10.5H17.3477V12H15.8477V10.5Z" fill="#E5E0E0"/>
<path d="M20.3477 10.5H21.8477V12H20.3477V10.5Z" fill="#E5E0E0"/>
<path d="M6.84766 14.25H8.34766V15.75H6.84766V14.25Z" fill="#E5E0E0"/>
<path d="M11.3477 14.25H12.8477V15.75H11.3477V14.25Z" fill="#E5E0E0"/>
<path d="M15.8477 14.25H17.3477V15.75H15.8477V14.25Z" fill="#E5E0E0"/>
<path d="M20.3477 14.25H21.8477V15.75H20.3477V14.25Z" fill="#E5E0E0"/>
<path d="M6.84766 18H8.34766V19.5H6.84766V18Z" fill="#E5E0E0"/>
<path d="M11.3477 18H12.8477V19.5H11.3477V18Z" fill="#E5E0E0"/>
<path d="M15.8477 18H17.3477V19.5H15.8477V18Z" fill="#E5E0E0"/>
<path d="M20.3477 18H21.8477V19.5H20.3477V18Z" fill="#E5E0E0"/>
<path d="M8.34766 7.5C8.54657 7.5 8.73733 7.42098 8.87799 7.28033C9.01864 7.13968 9.09766 6.94891 9.09766 6.75V2.25C9.09766 2.05109 9.01864 1.86032 8.87799 1.71967C8.73733 1.57902 8.54657 1.5 8.34766 1.5C8.14874 1.5 7.95798 1.57902 7.81733 1.71967C7.67667 1.86032 7.59766 2.05109 7.59766 2.25V6.75C7.59766 6.94891 7.67667 7.13968 7.81733 7.28033C7.95798 7.42098 8.14874 7.5 8.34766 7.5Z" fill="#E5E0E0"/>
<path d="M20.3477 7.5C20.5466 7.5 20.7373 7.42098 20.878 7.28033C21.0186 7.13968 21.0977 6.94891 21.0977 6.75V2.25C21.0977 2.05109 21.0186 1.86032 20.878 1.71967C20.7373 1.57902 20.5466 1.5 20.3477 1.5C20.1487 1.5 19.958 1.57902 19.8173 1.71967C19.6767 1.86032 19.5977 2.05109 19.5977 2.25V6.75C19.5977 6.94891 19.6767 7.13968 19.8173 7.28033C19.958 7.42098 20.1487 7.5 20.3477 7.5Z" fill="#E5E0E0"/>
<path d="M10.5977 4.5H18.0977V6H10.5977V4.5Z" fill="#E5E0E0"/>
</g>
<defs>
<clipPath id="clip0_150_4456">
<rect width="27" height="27" fill="white" transform="translate(0.847656)"/>
</clipPath>
</defs>
</svg>
