<svg width="24" height="23" viewBox="0 0 24 23" fill="none" xmlns="http://www.w3.org/2000/svg">
<path d="M17.583 1.54086C19.3312 2.5502 20.783 4.00194 21.7923 5.75016C22.8017 7.49838 23.333 9.48149 23.333 11.5002C23.333 13.5188 22.8016 15.5019 21.7922 17.2501C20.7829 18.9983 19.3311 20.4501 17.5829 21.4594C15.8346 22.4687 13.8515 23 11.8328 23C9.81414 23 7.83103 22.4686 6.08282 21.4592C4.33461 20.4498 2.88289 18.9981 1.87359 17.2498C0.864285 15.5016 0.332957 13.5185 0.333008 11.4998L0.338758 11.1272C0.403162 9.14115 0.981088 7.20568 2.01619 5.50948C3.0513 3.81328 4.50826 2.41423 6.24503 1.44873C7.98181 0.483233 9.93913 -0.0157673 11.9262 0.00037978C13.9132 0.0165268 15.8622 0.54727 17.583 1.54086ZM12.983 4.59984C12.678 4.59984 12.3855 4.721 12.1698 4.93667C11.9542 5.15233 11.833 5.44484 11.833 5.74983H10.683C10.683 5.44484 10.5618 5.15233 10.3462 4.93667C10.1305 4.721 9.83801 4.59984 9.53301 4.59984C9.22801 4.59984 8.9355 4.721 8.71984 4.93667C8.50417 5.15233 8.38301 5.44484 8.38301 5.74983C8.07801 5.74983 7.7855 5.87099 7.56984 6.08666C7.35417 6.30232 7.23301 6.59483 7.23301 6.89983C7.23301 7.20482 7.35417 7.49733 7.56984 7.71299C7.7855 7.92866 8.07801 8.04982 8.38301 8.04982V14.9498C8.07801 14.9498 7.7855 15.0709 7.56984 15.2866C7.35417 15.5023 7.23301 15.7948 7.23301 16.0998C7.23301 16.4048 7.35417 16.6973 7.56984 16.9129C7.7855 17.1286 8.07801 17.2497 8.38301 17.2497C8.38301 18.7827 10.683 18.7827 10.683 17.2497H11.833C11.833 17.5547 11.9542 17.8473 12.1698 18.0629C12.3855 18.2786 12.678 18.3997 12.983 18.3997C13.288 18.3997 13.5805 18.2786 13.7962 18.0629C14.0118 17.8473 14.133 17.5547 14.133 17.2497V17.0772C15.4751 16.6242 16.433 15.3212 16.433 13.7998L16.4273 13.5985C16.3848 12.8244 16.0881 12.0859 15.5832 11.4975C16.1122 10.8857 16.433 10.0796 16.433 9.19981C16.433 7.67837 15.4751 6.37543 14.133 5.92233V5.74983C14.133 5.44484 14.0118 5.15233 13.7962 4.93667C13.5805 4.721 13.288 4.59984 12.983 4.59984ZM13.0865 12.6498C13.6523 12.6498 14.133 13.1523 14.133 13.7998C14.133 14.4472 13.6523 14.9498 13.0865 14.9498H10.683V12.6498H13.0865ZM13.0865 8.04982C13.6523 8.04982 14.133 8.55236 14.133 9.19981C14.133 9.8001 13.719 10.2774 13.2061 10.3418L13.0865 10.3498H10.683V8.04982H13.0865Z" fill="#E5E0E0"/>
</svg>
