<svg width="31" height="29" viewBox="0 0 31 29" fill="none" xmlns="http://www.w3.org/2000/svg">
<path d="M13.8069 1.8541C14.4056 0.0114784 17.0124 0.0114794 17.6111 1.8541L19.7502 8.43769C20.018 9.26174 20.7859 9.81966 21.6523 9.81966H28.5747C30.5122 9.81966 31.3177 12.2989 29.7503 13.4377L24.15 17.5066C23.449 18.0159 23.1557 18.9186 23.4234 19.7426L25.5626 26.3262C26.1613 28.1689 24.0523 29.7011 22.4849 28.5623L16.8846 24.4934C16.1836 23.9841 15.2344 23.9841 14.5334 24.4934L8.93307 28.5623C7.36565 29.7011 5.25669 28.1689 5.85539 26.3262L7.99453 19.7426C8.26228 18.9186 7.96896 18.0159 7.26799 17.5066L1.66765 13.4377C0.100223 12.2989 0.905774 9.81966 2.84322 9.81966H9.76562C10.6321 9.81966 11.4 9.26174 11.6677 8.43769L13.8069 1.8541Z" fill="#FFE176"/>
</svg>
