<svg width="36" height="37" viewBox="0 0 36 37" fill="none" xmlns="http://www.w3.org/2000/svg">
<path d="M31.3535 5.47587C31.5009 5.79537 31.7495 6.04738 32.078 6.19025L33.4449 6.78312C33.5357 6.82285 33.6129 6.88816 33.6671 6.97108C33.7213 7.054 33.7502 7.15093 33.7502 7.25C33.7502 7.34907 33.7213 7.446 33.6671 7.52892C33.6129 7.61184 33.5357 7.67715 33.4449 7.71688L32.0893 8.30975C31.7656 8.4465 31.5067 8.70218 31.3659 9.02413L30.2927 11.462C30.1014 11.8456 29.5243 11.8456 29.3319 11.462L28.2587 9.02413C28.1145 8.7045 27.8567 8.44988 27.5353 8.30975L26.1797 7.71688C26.0889 7.67715 26.0117 7.61184 25.9575 7.52892C25.9032 7.446 25.8744 7.34907 25.8744 7.25C25.8744 7.15093 25.9032 7.054 25.9575 6.97108C26.0117 6.88816 26.0889 6.82285 26.1797 6.78312L27.5353 6.19025C27.859 6.0535 28.1179 5.79782 28.2587 5.47587L29.3319 3.038C29.5232 2.65438 30.1003 2.65438 30.2927 3.038L31.3535 5.47587ZM17.9807 6.31063C18.0861 6.53253 18.2695 6.70791 18.4959 6.80338L19.4679 7.20837C19.7604 7.34 19.7604 7.7225 19.4679 7.85413L18.4959 8.25912C18.2669 8.35062 18.0823 8.52721 17.9807 8.75187L17.2202 10.4281C17.0795 10.6902 16.6689 10.6902 16.5294 10.4281L15.7689 8.75187C15.6639 8.52965 15.4804 8.35414 15.2537 8.25912L14.2817 7.85413C14.2171 7.82836 14.1617 7.78382 14.1227 7.72626C14.0837 7.66871 14.0629 7.60078 14.0629 7.53125C14.0629 7.46172 14.0837 7.39379 14.1227 7.33624C14.1617 7.27868 14.2171 7.23414 14.2817 7.20837L15.2537 6.80338C15.4826 6.71188 15.6673 6.53529 15.7689 6.31063L16.5294 4.63437C16.67 4.37225 17.0807 4.37225 17.2202 4.63437L17.9807 6.31063ZM4.49979 29.75L2.63004 31.5804C2.5096 31.7002 2.41402 31.8426 2.3488 31.9995C2.28358 32.1563 2.25 32.3246 2.25 32.4944C2.25 32.6643 2.28358 32.8325 2.3488 32.9894C2.41402 33.1463 2.5096 33.2887 2.63004 33.4085L3.09129 33.8698C3.58629 34.3783 4.40754 34.3783 4.90254 33.8585L6.74979 32.0079L6.74642 32.0045L22.4998 16.25L24.383 14.3746C24.8724 13.874 24.8724 12.9796 24.383 12.4902L24.0118 12.1179C23.5123 11.6262 22.4998 11.75 21.9373 12.3125L4.49979 29.75ZM29.1935 18.8353C28.9615 18.7236 28.7777 18.5318 28.676 18.2952L27.9054 16.4705C27.7614 16.1769 27.3519 16.1769 27.2192 16.4705L26.4485 18.2964C26.3467 18.5326 26.1629 18.724 25.931 18.8353L24.9669 19.2763C24.6778 19.4225 24.6778 19.8387 24.9669 19.9737L25.9299 20.4147C26.1619 20.5264 26.3458 20.7182 26.4474 20.9548L27.2192 22.7795C27.3632 23.0731 27.7727 23.0731 27.9054 22.7795L28.676 20.9548C28.7776 20.7181 28.9615 20.5263 29.1935 20.4147L30.1577 19.9737C30.4468 19.8275 30.4468 19.4113 30.1577 19.2763L29.1935 18.8353ZM13.4998 16.25C13.7982 16.25 14.0843 16.1315 14.2953 15.9205C14.5063 15.7095 14.6248 15.4234 14.6248 15.125C14.6248 14.8266 14.5063 14.5405 14.2953 14.3295C14.0843 14.1185 13.7982 14 13.4998 14C13.2014 14 12.9153 14.1185 12.7043 14.3295C12.4933 14.5405 12.3748 14.8266 12.3748 15.125C12.3748 15.4234 12.4933 15.7095 12.7043 15.9205C12.9153 16.1315 13.2014 16.25 13.4998 16.25ZM33.7498 15.125C33.7498 15.4234 33.6313 15.7095 33.4203 15.9205C33.2093 16.1315 32.9232 16.25 32.6248 16.25C32.3264 16.25 32.0403 16.1315 31.8293 15.9205C31.6183 15.7095 31.4998 15.4234 31.4998 15.125C31.4998 14.8266 31.6183 14.5405 31.8293 14.3295C32.0403 14.1185 32.3264 14 32.6248 14C32.9232 14 33.2093 14.1185 33.4203 14.3295C33.6313 14.5405 33.7498 14.8266 33.7498 15.125ZM21.3748 5C21.6732 5 21.9593 4.88147 22.1703 4.6705C22.3813 4.45952 22.4998 4.17337 22.4998 3.875C22.4998 3.57663 22.3813 3.29048 22.1703 3.0795C21.9593 2.86853 21.6732 2.75 21.3748 2.75C21.0764 2.75 20.7903 2.86853 20.5793 3.0795C20.3683 3.29048 20.2498 3.57663 20.2498 3.875C20.2498 4.17337 20.3683 4.45952 20.5793 4.6705C20.7903 4.88147 21.0764 5 21.3748 5ZM22.4998 24.125C22.4998 24.4234 22.3813 24.7095 22.1703 24.9205C21.9593 25.1315 21.6732 25.25 21.3748 25.25C21.0764 25.25 20.7903 25.1315 20.5793 24.9205C20.3683 24.7095 20.2498 24.4234 20.2498 24.125C20.2498 23.8266 20.3683 23.5405 20.5793 23.3295C20.7903 23.1185 21.0764 23 21.3748 23C21.6732 23 21.9593 23.1185 22.1703 23.3295C22.3813 23.5405 22.4998 23.8266 22.4998 24.125Z" fill="black" fill-opacity="0.6"/>
</svg>
