<svg width="23" height="23" viewBox="0 0 23 23" fill="none" xmlns="http://www.w3.org/2000/svg">
<path d="M2.41615 16.9633C0.503732 17.2737 -0.68865 14.9556 0.676061 13.5803L3.52891 10.7055C4.13923 10.0905 4.28411 9.15241 3.88779 8.38191L2.03523 4.78031C1.14903 3.05742 2.98524 1.20706 4.71488 2.08001L8.3306 3.90485C9.10412 4.29525 10.041 4.14316 10.6514 3.52814L13.5042 0.653299C14.8689 -0.721933 17.1961 0.452609 16.9004 2.36735L16.2822 6.37001C16.1499 7.22631 16.5841 8.07039 17.3576 8.46078L20.9733 10.2856C22.703 11.1586 22.3051 13.7348 20.3927 14.0453L16.3949 14.6942C15.5396 14.833 14.871 15.5068 14.7388 16.3631L14.1205 20.3657C13.8248 22.2805 11.2517 22.6982 10.3655 20.9753L8.51291 17.3737C8.11658 16.6032 7.2692 16.1755 6.41394 16.3143L2.41615 16.9633Z" fill="white" fill-opacity="0.33"/>
</svg>
