<svg width="23" height="23" viewBox="0 0 23 23" fill="none" xmlns="http://www.w3.org/2000/svg">
<path d="M12.5269 21.3772C11.6844 23.1219 9.10155 22.7693 8.7576 20.8626L8.03859 16.8768C7.88477 16.0241 7.19939 15.3675 6.3409 15.2503L2.328 14.7024C0.408364 14.4403 -0.0544199 11.8749 1.65265 10.9586L5.22117 9.0431C5.98459 8.63332 6.39733 7.77855 6.24351 6.92586L5.5245 2.94008C5.18055 1.03341 7.47739 -0.199484 8.87637 1.14088L11.8008 3.94282C12.4265 4.54225 13.367 4.67065 14.1304 4.26086L17.6989 2.34537C19.406 1.42906 21.2883 3.2325 20.4458 4.9772L18.6847 8.62439C18.308 9.40465 18.4765 10.3388 19.1021 10.9382L22.0266 13.7401C23.4256 15.0805 22.2921 17.428 20.3724 17.1659L16.3595 16.618C15.501 16.5008 14.6647 16.9498 14.288 17.73L12.5269 21.3772Z" fill="white" fill-opacity="0.33"/>
</svg>
