<svg width="23" height="23" viewBox="0 0 23 23" fill="none" xmlns="http://www.w3.org/2000/svg">
<path d="M2.41566 16.9633C0.503244 17.2737 -0.689138 14.9556 0.675573 13.5803L3.52842 10.7055C4.13874 10.0905 4.28363 9.15241 3.8873 8.38191L2.03475 4.78031C1.14854 3.05742 2.98475 1.20706 4.71439 2.08001L8.33011 3.90485C9.10363 4.29525 10.0406 4.14316 10.6509 3.52814L13.5037 0.653298C14.8684 -0.721934 17.1957 0.452608 16.8999 2.36735L16.2817 6.37001C16.1495 7.22631 16.5836 8.07039 17.3571 8.46078L20.9729 10.2856C22.7025 11.1586 22.3046 13.7348 20.3922 14.0453L16.3944 14.6942C15.5391 14.833 14.8705 15.5068 14.7383 16.3631L14.1201 20.3657C13.8243 22.2805 11.2512 22.6982 10.365 20.9753L8.51242 17.3737C8.1161 16.6032 7.26871 16.1755 6.41345 16.3143L2.41566 16.9633Z" fill="#E9AC12"/>
</svg>
