<svg width="23" height="22" viewBox="0 0 23 22" fill="none" xmlns="http://www.w3.org/2000/svg">
<path d="M2.1981 15.1854C0.260976 15.1503 -0.499523 12.6569 1.08828 11.5467L4.40749 9.22582C5.11758 8.72932 5.42721 7.83205 5.17443 7.00329L3.99288 3.12935C3.42766 1.27618 5.56403 -0.217604 7.11057 0.949412L10.3435 3.38899C11.0351 3.9109 11.9842 3.9281 12.6943 3.43159L16.0135 1.11075C17.6013 0.000537965 19.6821 1.57075 19.0501 3.40222L17.729 7.2308C17.4464 8.04986 17.7233 8.95776 18.4149 9.47967L21.6479 11.9192C23.1944 13.0863 22.344 15.5505 20.4069 15.5154L16.3575 15.442C15.4912 15.4263 14.7133 15.9702 14.4306 16.7893L13.1095 20.6179C12.4775 22.4493 9.8711 22.4021 9.30588 20.5489L8.12432 16.675C7.87155 15.8462 7.11387 15.2745 6.24756 15.2588L2.1981 15.1854Z" fill="white" fill-opacity="0.33"/>
</svg>
