<svg width="23" height="22" viewBox="0 0 23 22" fill="none" xmlns="http://www.w3.org/2000/svg">
<path d="M2.19859 15.1854C0.261465 15.1503 -0.499035 12.6569 1.08877 11.5467L4.40798 9.22582C5.11807 8.72932 5.4277 7.83205 5.17492 7.00329L3.99336 3.12935C3.42815 1.27618 5.56452 -0.217605 7.11106 0.949411L10.344 3.38899C11.0356 3.9109 11.9847 3.9281 12.6948 3.43159L16.014 1.11075C17.6018 0.000537504 19.6826 1.57075 19.0506 3.40222L17.7295 7.2308C17.4469 8.04986 17.7238 8.95776 18.4154 9.47967L21.6483 11.9192C23.1949 13.0863 22.3445 15.5505 20.4074 15.5154L16.358 15.442C15.4916 15.4263 14.7137 15.9702 14.4311 16.7893L13.11 20.6179C12.478 22.4493 9.87158 22.4021 9.30637 20.5489L8.12481 16.675C7.87203 15.8462 7.11436 15.2745 6.24805 15.2588L2.19859 15.1854Z" fill="#F6C037"/>
</svg>
