<svg width="23" height="23" viewBox="0 0 23 23" fill="none" xmlns="http://www.w3.org/2000/svg">
<path d="M9.51106 2.36943C10.0872 0.519611 12.6938 0.487688 13.315 2.32284L14.6136 6.15912C14.8914 6.97982 15.6661 7.5283 16.5325 7.51769L20.5823 7.46809C22.5196 7.44437 23.3555 9.91355 21.8021 11.0715L18.5549 13.492C17.8602 14.0098 17.578 14.9161 17.8558 15.7368L19.1544 19.5731C19.7757 21.4082 17.6856 22.9662 16.1044 21.8467L12.7988 19.5064C12.0917 19.0057 11.1426 19.0173 10.4479 19.5352L7.20065 21.9557C5.64729 23.1136 3.51972 21.6073 4.09582 19.7575L5.30011 15.8906C5.55775 15.0633 5.2534 14.1642 4.54624 13.6636L1.24072 11.3233C-0.340532 10.2037 0.434598 7.71483 2.3719 7.6911L6.42172 7.64151C7.2881 7.6309 8.04913 7.06362 8.30676 6.23635L9.51106 2.36943Z" fill="white" fill-opacity="0.33"/>
</svg>
