<svg width="23" height="23" viewBox="0 0 23 23" fill="none" xmlns="http://www.w3.org/2000/svg">
<path d="M10.836 1.8631C11.6982 0.128068 14.2769 0.509962 14.5992 2.42041L15.2729 6.4141C15.417 7.26848 16.0949 7.93288 16.952 8.05981L20.9585 8.65315C22.875 8.93698 23.3087 11.5075 21.5913 12.4044L18.0013 14.2793C17.2333 14.6804 16.8109 15.5304 16.955 16.3848L17.6288 20.3785C17.9511 22.2889 15.6404 23.4957 14.2567 22.1395L11.3642 19.3046C10.7454 18.6981 9.80645 18.559 9.03842 18.9601L5.44841 20.835C3.73106 21.7319 1.86932 19.9073 2.73151 18.1722L4.53386 14.5452C4.91944 13.7693 4.76154 12.8333 4.14274 12.2269L1.25023 9.39192C-0.133457 8.03578 1.02661 5.70131 2.94315 5.98514L6.94957 6.57848C7.80668 6.70541 8.64804 6.26601 9.03362 5.49008L10.836 1.8631Z" fill="white" fill-opacity="0.33"/>
</svg>
