<svg width="23" height="23" viewBox="0 0 23 23" fill="none" xmlns="http://www.w3.org/2000/svg">
<path d="M10.8355 1.8631C11.6977 0.128068 14.2764 0.509962 14.5987 2.42041L15.2724 6.4141C15.4166 7.26848 16.0944 7.93288 16.9516 8.05981L20.958 8.65315C22.8745 8.93698 23.3082 11.5075 21.5908 12.4044L18.0008 14.2793C17.2328 14.6804 16.8104 15.5304 16.9545 16.3848L17.6283 20.3785C17.9506 22.2889 15.6399 23.4957 14.2562 22.1395L11.3637 19.3046C10.7449 18.6981 9.80596 18.559 9.03794 18.9601L5.44792 20.835C3.73057 21.7319 1.86883 19.9073 2.73102 18.1722L4.53337 14.5452C4.91895 13.7693 4.76105 12.8333 4.14225 12.2269L1.24974 9.39192C-0.133945 8.03578 1.02612 5.70131 2.94266 5.98514L6.94908 6.57848C7.80619 6.70541 8.64755 6.26601 9.03313 5.49008L10.8355 1.8631Z" fill="#FFE896"/>
</svg>
