<svg width="23" height="23" viewBox="0 0 23 23" fill="none" xmlns="http://www.w3.org/2000/svg">
<path d="M12.5274 21.3772C11.6849 23.1219 9.10204 22.7693 8.75809 20.8626L8.03908 16.8768C7.88526 16.0241 7.19988 15.3675 6.34139 15.2503L2.32849 14.7024C0.408853 14.4403 -0.0539319 11.8749 1.65313 10.9586L5.22166 9.0431C5.98508 8.63332 6.39781 7.77855 6.24399 6.92587L5.52499 2.94008C5.18104 1.03341 7.47788 -0.199485 8.87685 1.14088L11.8013 3.94282C12.427 4.54225 13.3674 4.67065 14.1309 4.26086L17.6994 2.34537C19.4065 1.42906 21.2888 3.2325 20.4463 4.9772L18.6852 8.62439C18.3085 9.40465 18.477 10.3388 19.1026 10.9382L22.0271 13.7401C23.4261 15.0805 22.2926 17.428 20.3729 17.1659L16.36 16.618C15.5015 16.5008 14.6652 16.9498 14.2884 17.73L12.5274 21.3772Z" fill="#FFD233"/>
</svg>
