<svg width="23" height="23" viewBox="0 0 23 23" fill="none" xmlns="http://www.w3.org/2000/svg">
<path d="M9.51106 2.36936C10.0872 0.51955 12.6938 0.487627 13.315 2.32278L14.6136 6.15906C14.8914 6.97976 15.6661 7.52824 16.5325 7.51763L20.5823 7.46803C22.5196 7.44431 23.3555 9.91349 21.8021 11.0714L18.5549 13.4919C17.8602 14.0098 17.578 14.916 17.8558 15.7367L19.1544 19.573C19.7757 21.4082 17.6856 22.9661 16.1044 21.8466L12.7988 19.5063C12.0917 19.0056 11.1426 19.0173 10.4479 19.5351L7.20065 21.9556C5.64729 23.1136 3.51972 21.6072 4.09582 19.7574L5.30011 15.8905C5.55775 15.0632 5.2534 14.1642 4.54624 13.6635L1.24072 11.3232C-0.340533 10.2037 0.434598 7.71477 2.3719 7.69104L6.42172 7.64145C7.2881 7.63084 8.04913 7.06356 8.30676 6.23629L9.51106 2.36936Z" fill="#FFDE6A"/>
</svg>
