<svg width="285" height="331" viewBox="0 0 285 331" fill="none" xmlns="http://www.w3.org/2000/svg">
<g filter="url(#filter0_d_504_16638)">
<mask id="path-1-inside-1_504_16638" fill="white">
<path fill-rule="evenodd" clip-rule="evenodd" d="M36.9962 0H249.215C249.073 1.13534 249 2.29001 249 3.46038C249 19.8347 263.281 33.1375 281 33.3836V283.214C265.18 285.232 253 297.734 253 312.856C253 316.417 253.675 319.832 254.914 323H28.0855C29.3247 319.832 30 316.417 30 312.856C30 298.378 18.8346 286.301 4 283.528V30.3836C4.16637 30.3859 4.33304 30.3871 4.5 30.3871C22.4493 30.3871 37 16.9885 37 0.460409C37 0.306666 36.9987 0.153193 36.9962 0Z"/>
</mask>
<path d="M249.215 0L250.207 0.124078L250.348 -1H249.215V0ZM36.9962 0V-1H35.9797L35.9964 0.0163828L36.9962 0ZM281 33.3836H282V32.3974L281.014 32.3837L281 33.3836ZM281 283.214L281.127 284.206L282 284.095V283.214H281ZM254.914 323V324H256.379L255.846 322.636L254.914 323ZM28.0855 323L27.1543 322.636L26.6205 324H28.0855V323ZM4 283.528H3V284.359L3.81627 284.511L4 283.528ZM4 30.3836L4.01388 29.3837L3 29.3696V30.3836H4ZM249.215 -1H36.9962V1H249.215V-1ZM250 3.46038C250 2.33162 250.07 1.21838 250.207 0.124078L248.223 -0.124078C248.076 1.05229 248 2.2484 248 3.46038H250ZM281.014 32.3837C263.764 32.1441 250 19.2125 250 3.46038H248C248 20.4568 262.799 34.1309 280.986 34.3835L281.014 32.3837ZM282 283.214V33.3836H280V283.214H282ZM254 312.856C254 298.306 265.735 286.169 281.127 284.206L280.873 282.222C264.626 284.294 252 297.162 252 312.856H254ZM255.846 322.636C254.651 319.581 254 316.289 254 312.856H252C252 316.545 252.7 320.084 253.983 323.364L255.846 322.636ZM28.0855 324H254.914V322H28.0855V324ZM29 312.856C29 316.289 28.3491 319.581 27.1543 322.636L29.0168 323.364C30.3002 320.084 31 316.545 31 312.856H29ZM3.81627 284.511C18.2447 287.208 29 298.925 29 312.856H31C31 297.831 19.4245 285.394 4.18373 282.545L3.81627 284.511ZM3 30.3836V283.528H5V30.3836H3ZM4.5 29.3871C4.33767 29.3871 4.17562 29.386 4.01388 29.3837L3.98612 31.3835C4.15711 31.3859 4.32841 31.3871 4.5 31.3871V29.3871ZM36 0.460409C36 16.3601 21.9762 29.3871 4.5 29.3871V31.3871C22.9223 31.3871 38 17.6168 38 0.460409H36ZM35.9964 0.0163828C35.9988 0.164113 36 0.312125 36 0.460409H38C38 0.301207 37.9987 0.142274 37.9961 -0.0163828L35.9964 0.0163828Z" fill="white" mask="url(#path-1-inside-1_504_16638)"/>
</g>
<defs>
<filter id="filter0_d_504_16638" x="0" y="0" width="285" height="331" filterUnits="userSpaceOnUse" color-interpolation-filters="sRGB">
<feFlood flood-opacity="0" result="BackgroundImageFix"/>
<feColorMatrix in="SourceAlpha" type="matrix" values="0 0 0 0 0 0 0 0 0 0 0 0 0 0 0 0 0 0 127 0" result="hardAlpha"/>
<feOffset dy="4"/>
<feGaussianBlur stdDeviation="2"/>
<feComposite in2="hardAlpha" operator="out"/>
<feColorMatrix type="matrix" values="0 0 0 0 0 0 0 0 0 0 0 0 0 0 0 0 0 0 0.25 0"/>
<feBlend mode="normal" in2="BackgroundImageFix" result="effect1_dropShadow_504_16638"/>
<feBlend mode="normal" in="SourceGraphic" in2="effect1_dropShadow_504_16638" result="shape"/>
</filter>
</defs>
</svg>
