<svg width="303" height="336" viewBox="0 0 303 336" fill="none" xmlns="http://www.w3.org/2000/svg">
<path fill-rule="evenodd" clip-rule="evenodd" d="M185.004 52.9457C173.195 48.4574 160.384 46 147 46C87.9055 46 40 93.9055 40 153C40 212.094 87.9055 260 147 260C172.348 260 195.638 251.186 213.971 236.455L213.018 235.936C194.907 250.372 171.961 259 147 259C88.4578 259 41 211.542 41 153C41 94.4578 88.4578 47 147 47C160.211 47 172.858 49.4169 184.522 53.8326L185.004 52.9457Z" fill="white"/>
<path fill-rule="evenodd" clip-rule="evenodd" d="M199.577 240.733C209.997 234.695 219.516 226.696 227.561 216.796C263.086 173.082 256.447 108.847 212.733 73.3224C169.019 37.7981 104.784 44.4371 69.2597 88.1509C54.0216 106.902 46.5414 129.429 46.4175 151.846L47.4207 151.433C47.6337 129.374 55.042 107.232 70.0357 88.7816C105.212 45.4963 168.817 38.9225 212.102 74.0984C255.387 109.274 261.961 172.88 226.785 216.165C218.849 225.931 209.465 233.829 199.193 239.8L199.577 240.733Z" fill="#DEAA6B"/>
<path fill-rule="evenodd" clip-rule="evenodd" d="M240.538 212.764C269.705 167.554 262.095 106.604 220.396 70.1291C208.107 59.3803 194.106 51.8483 179.422 47.4643L179.857 48.6408C194.145 53.0146 207.762 60.4067 219.737 70.8818C260.863 106.856 268.527 166.854 240.104 211.588L240.538 212.764Z" fill="#F4D8B6"/>
<path fill-rule="evenodd" clip-rule="evenodd" d="M78.2928 224.106C61.7516 208.117 50.5816 186.654 47.6523 162.729L48.7393 163.354C51.7836 186.779 62.8107 207.779 79.0562 223.453L78.2928 224.106Z" fill="#F4D8B6"/>
<path fill-rule="evenodd" clip-rule="evenodd" d="M120.706 247.417C108.824 244.037 97.4434 238.463 87.2081 230.704L86 231.039C96.5494 239.16 108.328 244.963 120.635 248.436L120.706 247.417Z" fill="white"/>
</svg>
