<svg width="30" height="30" viewBox="0 0 30 30" fill="none" xmlns="http://www.w3.org/2000/svg">
<path d="M22.5 2.00982C24.7803 3.32635 26.6739 5.21992 27.9904 7.50021C29.3069 9.7805 30 12.3672 30 15.0002C30 17.6333 29.3069 20.2199 27.9903 22.5002C26.6738 24.7805 24.7802 26.674 22.4998 27.9905C20.2195 29.307 17.6328 30 14.9998 30C12.3667 30 9.78003 29.3068 7.49975 27.9903C5.21948 26.6737 3.32593 24.7801 2.00945 22.4998C0.69297 20.2194 -6.68845e-05 17.6328 4.84148e-09 14.9997L0.00750018 14.5137C0.0915048 11.9232 0.845322 9.39871 2.19546 7.18628C3.5456 4.97384 5.44598 3.14899 7.71134 1.88965C9.9767 0.630303 12.5297 -0.020566 15.1215 0.000495365C17.7133 0.0215568 20.2554 0.71383 22.5 2.00982ZM16.5 5.99979C16.1022 5.99979 15.7206 6.15783 15.4393 6.43913C15.158 6.72043 15 7.10196 15 7.49978H13.5C13.5 7.10196 13.342 6.72043 13.0607 6.43913C12.7794 6.15783 12.3978 5.99979 12 5.99979C11.6022 5.99979 11.2206 6.15783 10.9393 6.43913C10.658 6.72043 10.5 7.10196 10.5 7.49978C10.1022 7.49978 9.72064 7.65782 9.43934 7.93912C9.15804 8.22042 9 8.60195 9 8.99977C9 9.3976 9.15804 9.77912 9.43934 10.0604C9.72064 10.3417 10.1022 10.4998 10.5 10.4998V19.4997C10.1022 19.4997 9.72064 19.6577 9.43934 19.939C9.15804 20.2203 9 20.6019 9 20.9997C9 21.3975 9.15804 21.779 9.43934 22.0603C9.72064 22.3416 10.1022 22.4997 10.5 22.4997C10.5 24.4992 13.5 24.4992 13.5 22.4997H15C15 22.8975 15.158 23.279 15.4393 23.5603C15.7206 23.8416 16.1022 23.9997 16.5 23.9997C16.8978 23.9997 17.2794 23.8416 17.5607 23.5603C17.842 23.279 18 22.8975 18 22.4997V22.2747C19.7505 21.6837 21 19.9842 21 17.9997L20.9925 17.7372C20.9371 16.7274 20.5501 15.7642 19.8915 14.9967C20.5815 14.1987 21 13.1472 21 11.9998C21 10.0153 19.7505 8.31578 18 7.72478V7.49978C18 7.10196 17.842 6.72043 17.5607 6.43913C17.2794 6.15783 16.8978 5.99979 16.5 5.99979ZM16.635 16.4997C17.373 16.4997 18 17.1552 18 17.9997C18 18.8442 17.373 19.4997 16.635 19.4997H13.5V16.4997H16.635ZM16.635 10.4998C17.373 10.4998 18 11.1553 18 11.9998C18 12.7827 17.46 13.4052 16.791 13.4892L16.635 13.4997H13.5V10.4998H16.635Z" fill="#FFE176"/>
</svg>
