<svg width="23" height="23" viewBox="0 0 23 23" fill="none" xmlns="http://www.w3.org/2000/svg">
<path d="M21.625 11.4999C21.3266 11.4999 21.0405 11.6185 20.8295 11.8294C20.6185 12.0404 20.5 12.3266 20.5 12.6249V19.3749C20.5 19.6733 20.3815 19.9594 20.1705 20.1704C19.9595 20.3814 19.6734 20.4999 19.375 20.4999H3.625C3.32663 20.4999 3.04048 20.3814 2.8295 20.1704C2.61853 19.9594 2.5 19.6733 2.5 19.3749V3.62493C2.5 3.32656 2.61853 3.04041 2.8295 2.82944C3.04048 2.61846 3.32663 2.49993 3.625 2.49993H10.375C10.6734 2.49993 10.9595 2.3814 11.1705 2.17043C11.3815 1.95945 11.5 1.6733 11.5 1.37493C11.5 1.07656 11.3815 0.790415 11.1705 0.579436C10.9595 0.368458 10.6734 0.249931 10.375 0.249931H3.625C2.72989 0.249931 1.87145 0.605511 1.23851 1.23845C0.605579 1.87138 0.25 2.72983 0.25 3.62493V19.3749C0.25 20.27 0.605579 21.1285 1.23851 21.7614C1.87145 22.3944 2.72989 22.7499 3.625 22.7499H19.375C20.2701 22.7499 21.1286 22.3944 21.7615 21.7614C22.3944 21.1285 22.75 20.27 22.75 19.3749V12.6249C22.75 12.3266 22.6315 12.0404 22.4205 11.8294C22.2095 11.6185 21.9234 11.4999 21.625 11.4999ZM4.75 12.3549V17.1249C4.75 17.4233 4.86853 17.7094 5.0795 17.9204C5.29048 18.1314 5.57663 18.2499 5.875 18.2499H10.645C10.7931 18.2508 10.9398 18.2224 11.0769 18.1664C11.214 18.1104 11.3386 18.0279 11.4437 17.9237L19.2288 10.1274L22.4237 6.99993C22.5292 6.89535 22.6129 6.77092 22.67 6.63383C22.7271 6.49674 22.7565 6.34969 22.7565 6.20118C22.7565 6.05267 22.7271 5.90562 22.67 5.76853C22.6129 5.63144 22.5292 5.50701 22.4237 5.40243L17.6537 0.576181C17.5492 0.470737 17.4247 0.387043 17.2876 0.329928C17.1506 0.272814 17.0035 0.243408 16.855 0.243408C16.7065 0.243408 16.5594 0.272814 16.4224 0.329928C16.2853 0.387043 16.1608 0.470737 16.0562 0.576181L12.8837 3.75993L5.07625 11.5562C4.97198 11.6613 4.88949 11.786 4.83351 11.923C4.77752 12.0601 4.74914 12.2069 4.75 12.3549ZM16.855 2.96118L20.0387 6.14493L18.4412 7.74243L15.2575 4.55868L16.855 2.96118ZM7 12.8162L13.6713 6.14493L16.855 9.32868L10.1838 15.9999H7V12.8162Z" fill="white"/>
</svg>
